/* XPM */
static char *result[] = {
/* columns rows colors chars-per-pixel */
"48 48 90 1 ",
"  c #101400",
". c #161E01",
"X c #210E03",
"o c #1E3002",
"O c #263402",
"+ c #5F2F05",
"@ c #284804",
"# c #3D631B",
"$ c #3E641B",
"% c #3A572B",
"& c #3B572C",
"* c #385D28",
"= c #395E29",
"- c #3B622A",
"; c #3E662C",
": c #3E672D",
"> c #4E4116",
", c #416005",
"< c #4F770A",
"1 c #476718",
"2 c #426A1D",
"3 c #486819",
"4 c #4D6F1A",
"5 c #4F721B",
"6 c #51751C",
"7 c #557A1D",
"8 c #4E7D22",
"9 c #4B7C36",
"0 c #4D7339",
"q c #4E743A",
"w c #646329",
"e c #6D7C5E",
"r c #727272",
"t c #905E36",
"y c #AE7E29",
"u c #5B8C0A",
"i c #5C851F",
"p c #71A80F",
"a c #518324",
"s c #5F8A20",
"d c #659323",
"f c #609B2A",
"g c #639F2B",
"h c #67A62D",
"j c #78AD29",
"k c #78C134",
"l c #7AC535",
"z c #5B9641",
"x c #66984C",
"c c #62A346",
"v c #63A447",
"b c #6EB74F",
"n c #6FB84F",
"m c #70A753",
"M c #73AB55",
"N c #74AD56",
"B c #70BA50",
"V c #84C02D",
"C c #8CCA30",
"Z c #8ECE30",
"A c #ADC321",
"S c #858441",
"D c #A1A05D",
"F c #AE9E7B",
"G c #B1AF63",
"H c #A5BF7F",
"J c #C98E59",
"K c #DBA55B",
"L c #EABF68",
"P c #F4C765",
"I c gray55",
"U c #9DBC81",
"Y c #A2A385",
"T c #B2A88D",
"R c #A5A5A5",
"E c gray71",
"W c #B3C18A",
"Q c #B9C99D",
"! c #BDD19D",
"~ c #BFD8A4",
"^ c #C8C39F",
"/ c #F4D38E",
"( c #D3CEAA",
") c #E0C6B2",
"_ c #C9E7AE",
"` c #F7E2AD",
"' c #CECECE",
"] c #F4EDDD",
"[ c #E5E0E0",
"{ c white",
/* pixels */
"BZNBZBZllBNNZlZlytBZZlZlZllllZlllZZlBllBllZlZBBN",
"NNBBZZZZZBBBlBltPPtBllZZZllBlllllZytllBBZlZBBlNN",
"NNBZZZZZllBBBBB+yy+BlZZZllZBBBlBBtPPtllZZZBBllBB",
"BNllZZZlZZlBBBl.uu.ZllllZZZZZBBNN+yy+ZZlZlBllBZB",
"BBBBZlllZlBBBBl@,,.ZZZZZZZZZZZBNB.uu.ZlllllZZlBZ",
"BlZZZBBlZlBlBBB,u,@ZZBZlZllZZZBll@,,.ZZZZlBBZlZZ",
"llZBlBNBlllZZZl,u,@ZBNBBZllZlZlBB,u,@ZllZZBBBBZZ",
"lllBBNNNlZllZZZ>Sw>BNNBBllBlBZllZ,u,@ZBBlZBlZBZZ",
"BlBBBNNBlllllZl>GS>ZBNBllBNlBBZZZ>Sw>BBlBBBBllZZ",
"ZlBBBNBBllZlZl@,ww@.BBlBBNNBBlZlZ>GS>lllBBNNNlZZ",
"ZlBBlZZllZZZZZ,,,,@.NBlZNNBBBlyt@,ww@.lZBBBNNNll",
"BllZZZZZllZll,<<,@@@.ZlZZZBBNtPPt,,,@.llBlZlNNBB",
"BBZlllZZllBlluu<,,,,.ZBZZZBlB+yy+<,@@@.ZBNZZllZB",
"BZZlllZZlBBl@puu<<,,@.lllBBlZ.uu.<,,,,.lBNNZZlZZ",
"BlZBZNZBZBBl@pAA<,,@@.lBBBllZ@,,.u<<,,@.BlllZZZZ",
"BBZBBNZBBBBl@uAp<,@@@.ZlBlllZ,u,@A<,,@@.BZNlZZZl",
"BBBBBNNBZZBN@upu<,@o@.BNllNBl,u,@p<,@@@.BNNZZZlB",
"lllBNNNlZZZBO<pu,@@o@.BNlNNBB>Sw>u<,@o@.lBlZZlZB",
"llZZBNNZZZZZO<uu,@@o@.lBBNNBl>GS>u,@@o@.ZlBZlBZl",
"llZZBBZZlZZZO<u<,@oo@.lBBBBl@,ww@.,@@o@.ZBBBNBll",
"ZZZZZZlllZlZO<u<,@oo@>ZBllll,,,,@.,@oo@.BBNNNNBB",
"ZZlZlBZNllBZO<u<,@oww>ZZZlZ,<<,@@@.@oo@>ZlBBNBBl",
"ZlllBBBNNZZlO<u>GDSww>BlZZZuu<,,,,.@oww>ZZlBBNBl",
"lBllBBBBNlZZO<u>GDSww>BllZ@puu<<,,@.Sww>ZlBBBlBZ",
"BBllBllBBlZlYQ!TGDSww>BBll@pAA<,,@@.Sww>ZBBlllBZ",
"ZllZBlllB_]{{{{{](Sww>BBBB@uAp<,@@@.Sww>ZBZZllZZ",
"llZZZZZZ~{{{{{{{{{^ww>BZZB@upu<,@o@.Sww>lllZZlZZ",
"llZZZZlW]{{{{{]]{{]Fo.9vlZO<pu,@@o@.Sww>BlllZlZZ",
"BllZZZB)]{]{{{{]]]])o.%&glO<uu,@@o@.Swo.0xBlllZl",
"BBlZZlBE)]]]]{{]]])Io.112ZO<u<,@oo@...o.%=zZZBlB",
"BBZlBBBE[))]]]]]])EIo.*#2Z>,u<,@oo@...o.112ZBBlB",
"BZZZZBNE])]`)KK)])'ro.%#dZ>DS<,@oo@...o.1#2llBBB",
"ZZZlZBBE{J]{K'EK]J[r 1#iCB>DGDSS>o@..oo.#1dZlZBB",
"llZlZZZE{K`]K[RJ)J]r5sjZBB>DGDSS>o@.o  ##iCZllNB",
"llZZZZZE{L/`L[RKLJ]rZlBllZ>DGDSS>.@..#5shlZZZBNN",
"BZZZZZZE{LL`L[IKKK[IlBBllZ>SDDSS>.o.mMNZZZlBllNN",
"BBlZZZlE{/L//'IJJL'IlBBBll>wSSSS>.o.BNNlZllBBBBN",
"ZZlBlZZH'{///'IJJ[EIBBBlBNO@www>>.o.avNlBllBZZBZ",
"ZllZBZBZE{//LERKK[Ir#6cZlNO@,@@o..o.13glBBBlZllZ",
"ZllZZZZlE]/LKEEKL'r**17ZllO@@@oo..o.114lBBllZZll",
"ZlllBBBlU']/LIrL'Re**1iZllO@@@o...o.#14llZZZZZZl",
"ZBZBllBlBE[]]['EER#*16VZlZXO@oo..oo.11dBBlZZZlll",
"lBBBllBBBBl'[[['-$;8fkZllZZ o@@@o  #1iCBBZlZZZZZ",
"ZZZlZlBBNNBZBBBlllBBBllZBZZZB   .*:qhllZBlZZZZlB",
"BZZZZZBBNNNZZlZlNNZBBBBBllZZZBBbmnNNlBBBlllBBllB",
"BllZlZBBNBZllZZZBZZBlllBZZZZZBllBNBllBBZZllZllBB",
"BZlllZllNZZllllZZZZZlllZlZZZZZZlZZZBBBBlZlZZlBBB",
"BZlBZZllBlNBllZZZlZZllllllZlZZllZZZZBZBlllZZZlBB"
};
