/* XPM */
static char *result[] = {
/* columns rows colors chars-per-pixel */
"48 48 26 1 ",
"  c #1E1504",
". c #2D2106",
"X c #3E2D09",
"o c #46330B",
"O c #5B4010",
"+ c #6C4D1A",
"@ c #865D1E",
"# c #986E26",
"$ c #7F982B",
"% c #7B8B3E",
"& c #79923B",
"* c #7AC535",
"= c #74AD56",
"- c #70BA50",
"; c #8B9D29",
": c #A9802E",
"> c #A0B537",
", c #8ECE30",
"< c #B99341",
"1 c #88A142",
"2 c #8FAA4A",
"3 c #C7A258",
"4 c #CFA85C",
"5 c #D3B36B",
"6 c #DBBC73",
"7 c #E4CC84",
/* pixels */
"-,=-,-,**-==,*,*---,,*,*,****,***,,*-**-**,*,--=",
"==--,,,,,---*-*,----**,,,**-*****,,,**--,*,--*==",
"==-,,,,,**-----,***-*,,,**,---*--,*-,**,,,--**--",
"-=**,,,*,,*---*,,*,,****,,,,,--==,==,,,*,*-**-,-",
"----,***,*----**,,,,,,,,,,,,,,-=-==-*,*****,,*-,",
"-*,,,--*,*-*----,*,,,-,*,**,,,-**==*,,,,,*--,*,,",
"**,-*-=-***,,,**,--,-=--,**,*,*---=--,**,,----,,",
"***--===*,**,,,**---==--**-*-,**,---*,--*,-*,-,,",
"-*---==-*****,*,*,-,-=-*5555--,,,,-----*----**,,",
",*---=--**,*,****,,-<<33666533,*,,*--***--===*,,",
",*--*,,**,,,,,555553:<35665433<:,,,**,*,---===**",
"-**,,,,,**,*336677653<33343<<::#::::,,**-*,*==--",
"--,***,,*33<<66777653<<<<<<<:#@:35543<<,-=,,**,-",
"-,,***,33655<35676553#:::::##@@<56655665-==,,*,,",
"-*,-,=3776653::33<<::######@++@<<33335663***,,,,",
"--,--<5776653#@::::##@@##@@+OoO:<<<<<3565<=*,,,*",
"----33566533<#@@####@++@@@++o.X+:<:#<3554<<,,,*-",
"***<::<53<<##@OO@@@@+O+++++OX .O@@@##:<<##:<,*,-",
"**5763<::##@@OoO+@@+OoOOOOOo. .O@@+@+@####<<<-,*",
"*35775:##@@@+OoO++++oXoooooo. XO@@OOOO@@#<5541**",
",37774:@+++@OOoooOOOXXXXXoXX  XO@+OooO+@#3555:--",
";5765<#+OO++OoXXooooXXXXXX..  XO@Ooooo+@#<554<1*",
";563<<@OooOOOoX..ooXX...  .   XOOoooXO++@:353<:*",
"$33<<:+oXXooXXX. .XXX...      Xoooo.o++++##:<::,",
"<33:##Oo..XXXX..  .oX.     .. XooX..O++Oo@@@33:;",
"<3<::@oX......... .oX....  .. .X. ..O+OooO@<55<>",
"<763:@oX.... ...  XoX.  . ..X.... .oOOooo+#455<<",
"<7775<OX... .XXX..XoX.    ..X. ....oOoooo+:455:<",
"<77653+o....XXoX...XX.    .XoX.....XOoooo@:344:<",
"<5565<@O.. .Xoo..  ...   ..XoX......XXXoO##::##<",
"23353<@+o. .Xoo.    .    .XOoX...X...XXo@35<::#2",
"23:<63<@+.  XoX.         .OOoX..XX...XO:5553<:#&",
",::<6773:O  ....        .XOOOoXXXX..XO@57753<:#&",
"*$:<5677:OO.            .oooOoXXX..X+@<67663::%-",
"**@:3556<<@O            .XooooXoX .#:<335533::==",
"-,;#:<<553<:+.    .    ..XooooXX..:5663::<<::$==",
"--*;#@<35563:o..       ..ooooOOO+:57776:##::&--=",
",,*-$@#<3353<:@+O    ...OO@@@:@+@<56776<###&,,-,",
",**,-;#:<<<::#:<<<@++@@:<<3333:##<57654<#@&*,**,",
",**,,,;#:::##<5566<##<335666775<#<5654<:#&**,,**",
",***---$@####<55553:<5667676775<:#<<<<:@$,,,,,,*",
",-,-**-*-&@@#:3533<<36665335553:######;--*,,,***",
"*---**----*;#:<3<:##<35353533<:#@@&$;,,--,*,,,,,",
",,,*,*--==-,&&####@@#:<<<<::##@$*--=***,-*,,,,*-",
"-,,,,,--===,,*,*%%@@@@#::::#@&--=-==*---***--**-",
"-**,*,--=-,**,,,-,,-**$&;;;,,-**-=-**--,,**,**--",
"-,***,**=,,****,,,,,***,*,,,,,,*,,,----*,*,,*---",
"-,*-,,**-*=-**,,,*,,******,*,,**,,,,-,-***,,,*--"
};
