/* XPM */
static char *result[] = {
/* columns rows colors chars-per-pixel */
"48 48 4 1 ",
"  c #7AC535",
". c #74AD56",
"X c #70BA50",
"o c #8ECE30",
/* pixels */
"Xo.XoXo  X..o o XXXoo o o    o   oo X  X  o oXX.",
"..XXoooooXXX X oXXXX  ooo  X     ooo  XXo oXX ..",
"..Xooooo  XXXXXo   X ooo  oXXX XXo Xo  oooXX  XX",
"X.  ooo oo XXX oo oo    oooooXX..o..ooo o X  XoX",
"XXXXo   o XXXX  ooooooooooooooX.X..X o     oo Xo",
"X oooXX o X XXXXo oooXo o  oooX  .. ooooo XXo oo",
"  oX X.X   ooo  oXXoX.XXo  o o XXX.XXo  ooXXXXoo",
"   XX... o  ooo  XXX..XX  X Xo  oXXX oXX oX oXoo",
"X XXX..X     o o oXoX.X  X. XXooooXXXXX XXXX  oo",
"o XXX.XX  o o    ooXXX XX..XX o oo XX   XX... oo",
"o XX oo  oooooXXooX..X o..XXX  oooo  o oXXX...  ",
"X  ooooo  o  oX  X..Xo oooXX.oXoooo oo  X o ..XX",
"XXo   oo  X  oo oXXoooXoooX XXXoX   o ooX.oo  oX",
"Xoo   oo XX  oooo X oo   XX o XoXooo    X..oo oo",
"X oXo.oXoXX oo  XoX Xo XXX  ooXXXXoo X  X   oooo",
"XXoXX.oXXXX .  oX..Xooo X   ooXX o oXXoXXo. ooo ",
"XXXXX..XooX... oXX.oooX.  .X Xo  oooXoXXX..ooo X",
"   X... oooX..XoXoo o X. ..XXoo o ooXXXX X oo oX",
"  ooX..ooooo XXX ooooo XX..X    o o  X  o Xo Xo ",
"  ooXXoo ooo XX oooooo XXXX XXXooo   XoooXXX.X  ",
"oooooo   o ooXX  oo   oX     XXoo     ooXX....XX",
"oo o Xo.  Xooo XXo X oooo o   X .. X o  o XX.XX ",
"o   XXX..oo oo  Xo XXoX oooo  o..XXXX   oo XX.X ",
" X  XXXX. oooo  oo   XX  ooo  XX.   Xo  o XXX Xo",
"XX  X  XX o ooXXooo X XX   oo o    o o ooXX   Xo",
"o  oX   X  X oX  ooo XXXXXX oooooX  oo  oXoo  oo",
"  ooooooX  XX X  ooo XXooXXooooo XX ooXX   oo oo",
"  oooo Xooo XX o oo   XX oX oXo XXXXo XXX   o oo",
"X  oooXXXoooX ooXooX  ..    oX X  XXX X...X   o ",
"XX oo X   oo  oXXX XX oo oo  XXX    XooX.XXooX X",
"XXo XXXXX oo  XX...XXXX  ooooXXo  oooooooo oXX X",
"XooooX.X.X Xo Xo  XX.X. oooo XXo  ooo ooo    XXX",
"ooo oXX....oo   o XXXo ooXoo  ooXooo oo  ooo oXX",
"  o oooX.Xoo  o o  oooooXXXoo  XXo   oo  ooo  .X",
"  ooooo X  o oooooooo X  oo ooooX XXX oo  oooX..",
"Xoooooo    o oooo oo XX  oX o ooo XX...ooo X  ..",
"XX ooo  oooXo X   oo XXX  ..o  oo X.X.. o  XXXX.",
"oo X ooo oo XXXXooooXXX X..oooo   XX X. X  XooXo",
"o  oXoXo o o XX o o  oXo .. . oo  X oo  XXX o  o",
"o  oooo    oooX XXoXXooo  X..ooX XX ooo XX  oo  ",
"o   XXX  X  oo XXX XXooo  XX.oXXXX   oo  oooooo ",
"oXoX  X XXXX ..X.. Xoooo ooXXX..XXX oooXX ooo   ",
" XXX  XXXX oX...X X   o  ooXX..o oX oooXXo ooooo",
"ooo o XX..XoXXX   XXX  oXoooX..  XX.   oX oooo X",
"XoooooXX...oo o ..oXXXXX  oooXXX.X.. XXX   XX  X",
"X  o oXX.Xo  oooXooX   XoooooX  X.X  XXoo  o  XX",
"Xo   o  .oo    ooooo   o oooooo oooXXXX o oo XXX",
"Xo Xoo  X .X  ooo oo      o oo  ooooXoX   ooo XX"
};
