/* XPM */
static char *result[] = {
/* columns rows colors chars-per-pixel */
"48 48 22 1 ",
"  c black",
". c #291F14",
"X c #1C301A",
"o c #262926",
"O c #3B3838",
"+ c #402C1C",
"@ c #452B2B",
"# c #30471F",
"$ c #6E433E",
"% c #57702E",
"& c #545959",
"* c #AB704C",
"= c #789633",
"- c #7AC535",
"; c #74AD56",
": c #70BA50",
"> c #8ECE30",
", c #A1C742",
"< c #D6C47A",
"1 c #858A8C",
"2 c #B0B8BA",
"3 c LightGray",
/* pixels */
":>;:>:>--:;;>->-:::>>->->---->--->>-:--:-->->::;",
";;::>>>>>:::-:->ooO&oO&o&Oo&Ooo-->>>--::>->::-;;",
";;:>>>>>--::::oOoo&1O&1&1&O1&ooOo>-:>-->>>::--::",
":;-->>>->>-:::oOO&O1&1&1&1&1O&OOo>;;>>>->-:--:>:",
"::::>--->-:::oOO&1&OO2&O&2OO&1&OOo;:->----->>-:>",
":->>>::->-:-:oO&O&1&O&2O2&O&1&O&Oo;->>>>>-::>->>",
"-->:-:;:--->>oO1&OOOo&2&2&oOOO&1Oo;::>-->>::::>>",
"---::;;;->-->oo&1<<<<o&o&o<<<<1&oo::->::->:->:>>",
":-:::;;:-----ooOOo<o<o<o<o<o<oOOoo:::::-::::-->>",
">-:::;::-->->oOoooooooooooooooooOo-::---::;;;->>",
">-::->>-->>>>oOo,o<o<o<o<o<o<o,oOo>-->->:::;;;--",
":-->>>>>-->--oOO,<<<<<<X<<<<<<,OOo>->>--:->-;;::",
"::>--->>-++++ooO,,,,,,#%#,,,,,,Ooo++++>>:;>>-->:",
":>>--->++$$$+#=o#####X%=%X#####o=#+$$$++:;;>>->>",
":->:>;+$$$$$+#%X%3 3%#=,=#%3 3%X%#+$$$$$+--->>>>",
"::>::+$$***$+#%X=%3%=#=<=#=%3%=X%#+$***$$+;->>>-",
"::::+$$****$$+X%=====#=,=#=====%X+$$****$$+>>>-:",
"---+$$$****$$+X#=,,,=X===X=,,,=#X+$$****$$$+>->:",
"-->#+$$$$***$+ #=,<,=%XXX%=,<,=# +$***$$$$+#-:>-",
"-->#+$+$$$**$+ X==,,==%#%==,,==X +$**$$$+$+#;:--",
">>##%+=++$$*$$+ #====#####====# +$$*$$++=+%##;::",
">>#%%%%+=+$$$$++   #=======#   ++$$$$+=+%%%%#::-",
">#%%%#%%+=+$+++++++ #%%%%%# +++++++$+=+%%#%%%#:-",
"-#%==%#%%%++ +++++++       +++++++ ++%%%#%==%#:>",
"#%=,,=%#     +++$$$+++XXX+++$$$+++     #%=,,=%#>",
"#%=,,,,=%#  ++$$$$$$++###++$$$$$$++  #%=,,,,=%#>",
"#%=,,,,=%# ++$$$**$$++%%%++$$**$$$++ #%=,,,,=%#>",
"#%====%##X ++$$***$$++===++$$***$$++ X##%====%#>",
"###%%%##X  ++$$**$$$++===++$$$**$$++  X##%%%###-",
"#%%====%#X +$$$$$$$+++===+++$$$$$$$+ X#%====%%#:",
"#%=====%#X +$$**$$++++===++++$$**$$+ X#%=====%#:",
"#%=====%#X +$$**$$$$++===++$$$$**$$+ X#%=====%#:",
"##====%##  ++$$$$$$$$+===+$$$$$$$$++  ##%====##:",
"##%%%%%%#X  ++++$***$+===+$***$++++  X#%%%%%%##:",
"##%%%%%%#X++++++$***$+===+$***$++++++X#%%%%%%##;",
"##%%%%%%#X+++$$$$$$$$+===+$$$$$$$$+++X#%%%%%%##;",
":##%%%%#X#+$$$$$...$$+###+$$...$$$$$+#X#%%%%##:;",
">>######X%++++$$.@@.$+XXX+$.@@.$$++++%X######>:>",
">-->:>:>#==+==+$$.@+$+@@@+$+@.$$+==+==#-:::->-->",
">-->>>>-#%===%++$$ +++@@@+++ $$++%===%#-::-->>--",
">---:::-X#%%%#+#+++  +   +  +++#+#%%%#X-->>>>>>-",
">:>:--:-:XXXX###+X           X+###XXXX>::->>>---",
"-:::--::: #%%##XXX           XXX##%%# >::>->>>>>",
">>>->-:: %==%%%##X           X##%%%==% >:->>>>-:",
":>>>>>: %=%===%%%#           #%%%===%=% ---::--:",
":-->->: #=#==#==%#           #%==#==#=# >-->--::",
":>--->-- ##%%#==%#           #%==#%%## ->->>-:::",
":>-:>>--:  ######   ------>   ######  :--->>>-::"
};
