/* XPM */
static char *result[] = {
/* columns rows colors chars-per-pixel */
"48 48 205 2 ",
"   c #224419",
".  c #22441A",
"X  c #23441A",
"o  c #23451A",
"O  c #24471B",
"+  c #25471B",
"@  c #25481C",
"#  c #26491C",
"$  c #264A1D",
"%  c #274A1D",
"&  c #274B1D",
"*  c #274B1E",
"=  c #274C1E",
"-  c #284C1E",
";  c #2A4F1F",
":  c #2C5A1C",
">  c #2C5B1C",
",  c #2C5B1D",
"<  c #2C5C1D",
"1  c #2D5C1D",
"2  c #2D5D1D",
"3  c #2E5E1E",
"4  c #2F5F1E",
"5  c #2F601F",
"6  c #30611F",
"7  c #30621F",
"8  c #3D631B",
"9  c #3E641B",
"0  c #36691F",
"q  c #366A1F",
"w  c #3F7A1D",
"e  c #2A4F20",
"r  c #2B5020",
"t  c #2C5221",
"y  c #2E5423",
"u  c #2E5623",
"i  c #2F5624",
"p  c #2F5724",
"a  c #305825",
"s  c #315925",
"d  c #325A26",
"f  c #325B26",
"g  c #335B27",
"h  c #335C27",
"j  c #3A572B",
"k  c #385D28",
"l  c #395F29",
"z  c #385833",
"x  c #3A5A35",
"c  c #3B5C36",
"v  c #3D5E39",
"b  c #316320",
"n  c #326320",
"m  c #326420",
"M  c #336521",
"N  c #336621",
"B  c #346722",
"V  c #366A23",
"C  c #376C24",
"Z  c #386D20",
"A  c #396E21",
"S  c #396F21",
"D  c #386D25",
"F  c #396F25",
"G  c #396F26",
"H  c #3A602A",
"J  c #3E672D",
"K  c #3B7122",
"L  c #3B7222",
"P  c #3D7523",
"I  c #397026",
"U  c #3B7227",
"Y  c #3E7624",
"T  c #3F7724",
"R  c #3D7428",
"E  c #3D7528",
"W  c #3E7629",
"Q  c #3E7729",
"!  c #3F7729",
"~  c #3F782A",
"^  c #3F792A",
"/  c #3F603A",
"(  c #476618",
")  c #476718",
"_  c #40671C",
"`  c #486819",
"'  c #486919",
"]  c #496A19",
"[  c #46711F",
"{  c #48741F",
"}  c #407B1E",
"|  c #417C1E",
" . c #427E1F",
".. c #50741B",
"X. c #416C2F",
"o. c #497620",
"O. c #427C27",
"+. c #447E27",
"@. c #40792A",
"#. c #407A2A",
"$. c #407A2B",
"%. c #417A2B",
"&. c #417B2B",
"*. c #447E28",
"=. c #447F28",
"-. c #457F28",
";. c #42643E",
":. c #497834",
">. c #497934",
",. c #50773B",
"<. c #476A42",
"1. c #496C44",
"2. c #51754D",
"3. c #52774E",
"4. c #53784F",
"5. c #468521",
"6. c #488622",
"7. c #498822",
"8. c #4B8C24",
"9. c #468129",
"0. c #47832A",
"q. c #49852B",
"w. c #49862B",
"e. c #4A862B",
"r. c #4B882C",
"t. c #4C892C",
"y. c #4D8B2D",
"u. c #4E8C2E",
"i. c #4F8E2F",
"p. c #528B22",
"a. c #508F2F",
"s. c #509226",
"d. c #509326",
"f. c #519426",
"g. c #529527",
"h. c #5B9328",
"j. c #5D9629",
"k. c #559928",
"l. c #569B29",
"z. c #579C29",
"x. c #579C2A",
"c. c #589D2A",
"v. c #4D8037",
"b. c #618C21",
"n. c #659222",
"m. c #659323",
"M. c #6D9E25",
"N. c #6E9F25",
"B. c #629E2B",
"V. c #5AA02B",
"C. c #5AA12B",
"Z. c #5BA12B",
"A. c #5BA22C",
"S. c #5CA32C",
"D. c #5CA42C",
"F. c #5DA42C",
"G. c #5DA52D",
"H. c #5EA62D",
"J. c #67A52B",
"K. c #64A12C",
"L. c #66A52D",
"P. c #6BAA2D",
"I. c #6CAC2E",
"U. c #6EAE2E",
"Y. c #72A527",
"T. c #74A827",
"R. c #75A928",
"E. c #79AF29",
"W. c #70B12F",
"Q. c #7BB22A",
"!. c #7DB52B",
"~. c #7FB82B",
"^. c #70B130",
"/. c #72B330",
"(. c #70B531",
"). c #73B431",
"_. c #73B531",
"`. c #74B631",
"'. c #75B732",
"]. c #73B932",
"[. c #76B832",
"{. c #74BB33",
"}. c #76BE33",
"|. c #77BF34",
" X c #79C235",
".X c #7AC435",
"XX c #7AC535",
"oX c #5F8D46",
"OX c #5F9D44",
"+X c #69AE4B",
"@X c #6BB24D",
"#X c #6CB24D",
"$X c #74AD56",
"%X c #70BA50",
"&X c #81BA2C",
"*X c #85C12D",
"=X c #86C22D",
"-X c #8AC82F",
";X c #8DCD30",
":X c #8ECE30",
">X c #8ED43D",
",X c #8ED53E",
"<X c #8FD53E",
"1X c #8FD63E",
"2X c #B7E324",
/* pixels */
"%X:X$X%X:X%X:XXXXX%X$X$X:XXX:XXX%X%X%X:X:XXX:XXX:XXXXXXXXX:XXXXXXX:X:XXX%XXXXX%XXXXX:XXX:X%X%X$X",
"$X$X%X%X:X:X:X:X:X%X%X%XXX%XXX:X%X%X%X%XXXXX:X:X:XXXXX%XXXXXXXXXXX:X:X:XXXXX%X%X:XXX:X%X%XXX$X$X",
"$X$X%X:X:X:X:X:XXXXX%X%X%X%X%X:XXXXXXX%XXX:X:X:XXXXX:X%X%X%XXX%X%X:XXX%X:XXXXX:X:X:X%X%XXXXX%X%X",
"%X$XXXXX:X:X:XXX:X:XXX%X%X%XXX:X:XXX:X:XXXXXXXXX:X:X:X:X:X%X%X$X$X:X$X$X:X:X:XXX:XXX%XXXXX%X:X%X",
"%X%X%X%X:XXXXXXX:XXX%X%X%X%XXXXX:X:Xa.a.a.a.a.a.4.4.:X:X:X:X%X$X%X$X$X%XXX:XXXXXXXXXXX:X:XXX%X:X",
"%XXX:X:X:X%X%XXX:XXX%XXX%X%X%X%Xa.H.1X1X1X1X1X[.[.H.3.2.:X:X%XXXXX$X$XXX:X:X:X:X:XXX%X%X:XXX:X:X",
"XXXX:X%XXX%X$X%XXXXXXX:X:X:Xa.H.[.[.1X2X2X2X1X1X[.G.Z.e.1.<.XX%X%X%X$X%X%X:XXXXX:X:X%X%X%X%X:X:X",
"XXXXXX%X%X$X$X$XXX:XXXXX:Xa.H.[.1X1X2X2X2X2X1X1X[._.U.d.Y K v XX:X%X%X%XXX:X%X%XXX:X%XXX:X%X:X:X",
"%XXX%X%X%X$X$X%XXXXXXXXXh H.[.1X1X1X1X2X2X1X2X1X,X/.k.8. .w q o :X:X%X%X%X%X%XXX%X%X%X%XXXXX:X:X",
":XXX%X%X%X$X%X%XXXXX:Xh h H.[.1X1X2X2X2X1X2X1X1X>X).C.J.} w q   X :XXX%X%XXXXXXX%X%X$X$X$XXX:X:X",
":XXX%X%XXX:X:XXXXX4.&.&.h a.[.[.1X1X2X2X2X1X2X1X1X1X[.P.p.w q       O XXXX:XXX:X%X%X%X$X$X$XXXXX",
"%XXXXX:X:X:X:X:X4.a.H.[.[.a.H.H.[.1X1X1X1X1X1X1X1X[.'.f.Z q q : : :   + :X:XXXXX%XXX:XXX$X$X%X%X",
"%X%X:XXXXXXX:X&.a.H.[.1X1X[.H.[.H.[.1X[.[.1X1X[.[.[.^.s.6 : : : : : : > / XX:X:X%X$X:X:XXXXX:X%X",
"%X:X:XXXXXXX:Xh a.[.1X1X1X1X1XH.[.H.[.[.[.[.H.H.a.G.A.0.M 1 q q q q q : 2 ;.XXXX%X$X$X:X:XXX:X:X",
"%XXX:X%X:X$Xh h H.[.1X1X2X2X1X1X1X[.[.[.H.H.H.a.a.a.i.r.s.5.| w w q q : : @ XXXX%XXXXXXX:X:X:X:X",
"%X%X:X%X%X$Xh h H.[.1X1X2X2X2X2X1X1X1X1XH.H.[.[.H.[.[.`.W.x.z.J.g.S q : : o * %X%X:X$XXX:X:X:XXX",
"%X%X%X%X%X4.&.&.&.H.[.[.1X1X2X2X2X1X2X1X1X[.[.1X[.1X[.1X[.[.[.l.I.6.q :     O %X%X$X$X:X:X:XXX%X",
"XXXXXX%X4.a.a.a.&.a.H.[.1X1X2X2X2X2X1X2X1X1X1X1X1X1X1X[.H.[.S.P.7.q :         c XX%XXX:X:XXX:X%X",
"XXXX:X:Xa.a.[.H.H.a.H.H.[.[.1X1X2X2X2X1X2X1X1X1X1X1X[.[.H.G.r.O.S q :   : : : : x XX%X:XXX%X:XXX",
"XXXX:X&.a.H.[.[.[.[.H.H.H.H.[.H.[.1X1X1X1X[.[.1X1X[.H.H.a.a.y.F b : : : : : : : z %X%X%X$X%XXXXX",
":X:X:X&.H.H.[.[.[.[.[.H.H.[.H.[.H.[.[.[.[.[.[.[.[.[.[.H.a.a.g i - > : : : q : : :   $X$X$X$X%X%X",
":X:XXXh a.H.H.[.1X1X[.[.[.[.[.H.[.[.[.a.H.[.H.H.[.[.a.&.&.&.&.a ; 3 5 Z q q q : :   %X%X$X%X%XXX",
":XXXh h &.a.H.[.1X1X1X1X1X[.1X[.[.[.H.a.a.H.a.a.a.&.&.a.a.&.&.~ R y.a.i.*.q q : :   XX%X%X$X%XXX",
"XX%Xh h &.&.&.a.1X1X1X2X2X2X1X1X[.[.H.a.H.H.a.a.H.a.a.a.a.a.a.a.a.a.H.a.G q q :     %X%X%XXX%X:X",
"%X4.&.&.a.a.&.&.H.[.[.1X2X2X1X2X2X1X1X[.[.H.[.[.H.H.H.a.H.a.H.a.H.a.H.c.5 : :       %XXXXXXX%X:X",
":X4.&.a.H.H.a.a.a.H.[.[.1X1X1X2X1X2X1X1X1X[.[.1X1X[.'.`.D.F.i.H.H.A.=.A 2     : :     :XXXXX:X:X",
"XXh &.H.H.[.[.[.H.H.a.H.H.[.[.1X2X1X2X1X1X1X1X1X<X>X_.W.c.r.V.u.q.N o   :   : : : :   N.:XXX:X:X",
"XXh &.H.H.[.[.[.1X[.H.[.H.[.H.[.1X1X1X1X1X1X[.[.'.).V.w.w.q.9.D & o   : : : : : : :   9 ~.XX:X:X",
"h h h a.H.[.H.[.1X1X[.H.[.H.[.H.H.H.[.[.[.[.[.H.D.~ ^ %.a.$.r M O   : : : q q :       . o.XX:XXX",
"h h h &.a.H.H.[.[.1X1X2X2X1X1X[.H.H.[.H.H.H.a.i.#.&.h h h ~ ; M 7 7 3 q q q q :         ) OXXX%X",
"h h &.&.&.a.H.[.[.1X2X2X1X2X1X1XH.[.[.H.a.a.a.a.a.&.h h &.%.@.u.y.u.+.2 0 : : :         k :.XX%X",
"h &.&.&.&.a.a.H.[.[.1X1X2X1X2X1X[.1X1XH.H.[.[.a.a.&.&.%.u.a.a.H.a.a.-.3 q :       : :   8 H %X%X",
"h &.a.a.&.&.&.a.H.[.[.[.1X2X1X2X1X1X1X1X1X1X[.H.H.a.&.a.H.a.H.H.H.t.P > : :       : :   8 ( %X%X",
"XX&.a.a.a.&.&.a.a.&.&.H.[.[.1X1X1X1X1X1X1X1X1X[.[.[.H.H.H.H.a.a.A.T 1     : : :       ) 8 8 $X%X",
"XXh &.a.H.H.[.a.a.&.&.a.[.[.1X1X[.1X1X[.1X[.[.[.[.H.H.a.H.a.a.9.K > :     : : : :     ) ) k $X$X",
"%Xh h a.H.[.H.[.a.a.a.a.a.H.[.[.[.[.[.H.[.[.a.H.a.H.a.a.a.i @ > , 4 @ o   q q : : :   k 8 8 $X$X",
"%X%Xh &.H.H.[.H.[.H.[.H.a.a.a.H.[.[.a.a.a.a.&.h &.%.Q u s t $ $ C R Q B X : q : : : 8 k k H %X$X",
":X:Xh &.a.a.a.[.H.[.[.[.[.H.a.H.H.H.a.a.a.a.h h h d p a s I E d %.a.i.9.2 q :       8 k ) b.%X:X",
":XXX{.h &.a.&.&.H.H.[.[.[.[.H.[.[.H.a.H.H.H.h h h @.! f g &.&.a.a.a.y.m > : :     k k 8 ] (.XX:X",
":XXX X:Xh &.&.h a.H.H.H.[.H.[.H.[.[.H.[.[.H.&.&.i.$.&.&.&.a.a.&.a.W n q :       k k 8 8 M.:XXXXX",
":XXXXXXX%X%Xh h &.a.a.&.a.H.H.[.H.H.[.H.[.H.a.H.H.H.a.&.a.a.&.u.D L < > > o ) 8 8 ) ) m.:X:X:XXX",
":X%X:X%XXXXX%Xh h &.&.&.&.a.a.a.H.H.H.[.H.H.H.a.H.H.a.a.&.W V # o 3 5 b % ) ) k k _ Y.:X:XXXXXXX",
"XX%X%X%XXX.X%X%X%X#Xh &.&.h &.a.a.&.a.a.H.a.a.H.i.$.$.@.U m o o + * e 8 ) ) ) l v.*XXX:X:X:X:X:X",
":X:X:XXX:XXX%X#X$X$X@Xh h h h &.&.h &.a.a.a.&.&.&.f s U V = # & 8 k k j 8 { j.=X%XXX:X:X:X:XXX%X",
"%X:X:X:X:X:X%X%X$X$X$X:XT.[ h h h h &.&.&.h h &.&.h d a y t t k j J ,.oX].%X%X%XXX XXX%X%XXXXX%X",
"%XXXXX:XXX:X%X%X$X%X:X|.XX:XQ.n.X.` h h h h h h h h ) ' ..>.h.L.+X$X%XXXXX%X%X:X:XXXXX:XXXXX%X%X",
"%X:XXXXXXX:XXXXX$X:X:XXXXX.X}.:X:X-X&XE.K.B.B.R.L.!.=X;X:X:X:XXX:X:X:X%X%X%X%XXX:XXX:X:XXX%X%X%X",
"%X:XXX%X:X:XXXXX%XXX$X%XXXXX:X:X:XXX:X:XXXXXXXXXXXXX:XXX:X:XXXXX:X:X:X:X%X:X%XXXXXXX:X:X:XXX%X%X"
};
